<svg width="1258" height="1625" viewBox="0 0 1258 1625" fill="none" xmlns="http://www.w3.org/2000/svg">
<path d="M114.657 407.707C115.047 408.098 115.681 408.098 116.071 407.707L122.435 401.343C122.826 400.953 122.826 400.319 122.435 399.929C122.044 399.538 121.411 399.538 121.021 399.929L115.364 405.586L109.707 399.929C109.317 399.538 108.683 399.538 108.293 399.929C107.902 400.319 107.902 400.953 108.293 401.343L114.657 407.707ZM115.364 148L114.364 148L114.364 407L115.364 407L116.364 407L116.364 148L115.364 148Z" fill="black"/>
<path d="M405.657 407.707C406.047 408.098 406.681 408.098 407.071 407.707L413.435 401.343C413.826 400.953 413.826 400.319 413.435 399.929C413.044 399.538 412.411 399.538 412.021 399.929L406.364 405.586L400.707 399.929C400.317 399.538 399.683 399.538 399.293 399.929C398.902 400.319 398.902 400.953 399.293 401.343L405.657 407.707ZM406.364 148L405.364 148L405.364 407L406.364 407L407.364 407L407.364 148L406.364 148Z" fill="black"/>
<path d="M788.675 1624.71C789.067 1625.1 789.7 1625.1 790.089 1624.7L796.429 1618.32C796.818 1617.92 796.815 1617.29 796.423 1616.9C796.031 1616.51 795.398 1616.52 795.009 1616.91L789.374 1622.59L783.695 1616.95C783.303 1616.56 782.67 1616.56 782.281 1616.96C781.892 1617.35 781.895 1617.98 782.287 1618.37L788.675 1624.71ZM788.364 1359L787.364 1359L788.379 1624L789.379 1624L790.379 1624L789.364 1359L788.364 1359Z" fill="black"/>
<path d="M564.071 1359.71C564.462 1359.32 564.462 1358.68 564.071 1358.29L557.707 1351.93C557.317 1351.54 556.683 1351.54 556.293 1351.93C555.902 1352.32 555.902 1352.95 556.293 1353.34L561.95 1359L556.293 1364.66C555.902 1365.05 555.902 1365.68 556.293 1366.07C556.683 1366.46 557.317 1366.46 557.707 1366.07L564.071 1359.71ZM137.364 1359V1360H563.364V1359V1358H137.364V1359Z" fill="black"/>
<path d="M1148.07 1359.71C1148.46 1359.32 1148.46 1358.68 1148.07 1358.29L1141.71 1351.93C1141.32 1351.54 1140.68 1351.54 1140.29 1351.93C1139.9 1352.32 1139.9 1352.95 1140.29 1353.34L1145.95 1359L1140.29 1364.66C1139.9 1365.05 1139.9 1365.68 1140.29 1366.07C1140.68 1366.46 1141.32 1366.46 1141.71 1366.07L1148.07 1359.71ZM1049.36 1359V1360H1147.36V1359V1358H1049.36V1359Z" fill="black"/>
<path d="M505.657 190.707C506.047 191.098 506.68 191.098 507.071 190.707L513.435 184.343C513.825 183.953 513.825 183.319 513.435 182.929C513.044 182.538 512.411 182.538 512.021 182.929L506.364 188.586L500.707 182.929C500.317 182.538 499.683 182.538 499.293 182.929C498.902 183.319 498.902 183.953 499.293 184.343L505.657 190.707ZM506.364 2H505.364V190H506.364H507.364V2H506.364Z" fill="black"/>
<path d="M812.674 407.709C813.065 408.098 813.699 408.097 814.088 407.705L820.436 401.325C820.826 400.934 820.824 400.301 820.433 399.911C820.041 399.522 819.408 399.523 819.018 399.915L813.376 405.586L807.705 399.943C807.313 399.554 806.68 399.555 806.29 399.947C805.901 400.338 805.903 400.971 806.294 401.361L812.674 407.709ZM812.364 2L811.364 2.00251L812.379 407.002L813.379 407L814.379 406.997L813.364 1.99749L812.364 2Z" fill="black"/>
<path d="M6.65685 1286.71C7.04737 1287.1 7.68054 1287.1 8.07106 1286.71L14.435 1280.34C14.8255 1279.95 14.8255 1279.32 14.435 1278.93C14.0445 1278.54 13.4113 1278.54 13.0208 1278.93L7.36396 1284.59L1.7071 1278.93C1.31658 1278.54 0.683413 1278.54 0.292888 1278.93C-0.0976359 1279.32 -0.0976359 1279.95 0.292889 1280.34L6.65685 1286.71ZM7.36391 148L6.36391 148L6.36396 1286L7.36396 1286L8.36396 1286L8.36391 148L7.36391 148Z" fill="black"/>
<path d="M655.657 1286.71C656.047 1287.1 656.681 1287.1 657.071 1286.71L663.435 1280.34C663.826 1279.95 663.826 1279.32 663.435 1278.93C663.044 1278.54 662.411 1278.54 662.021 1278.93L656.364 1284.59L650.707 1278.93C650.317 1278.54 649.683 1278.54 649.293 1278.93C648.902 1279.32 648.902 1279.95 649.293 1280.34L655.657 1286.71ZM656.364 148L655.364 148L655.364 1286L656.364 1286L657.364 1286L657.364 148L656.364 148Z" fill="black"/>
<path d="M956.657 1286.71C957.047 1287.1 957.68 1287.1 958.071 1286.71L964.435 1280.34C964.825 1279.95 964.825 1279.32 964.435 1278.93C964.044 1278.54 963.411 1278.54 963.021 1278.93L957.364 1284.59L951.707 1278.93C951.316 1278.54 950.683 1278.54 950.293 1278.93C949.902 1279.32 949.902 1279.95 950.293 1280.34L956.657 1286.71ZM957.364 148L956.364 148L956.364 1286L957.364 1286L958.364 1286L958.364 148L957.364 148Z" fill="black"/>
<path d="M1249.66 1286.71C1250.05 1287.1 1250.68 1287.1 1251.07 1286.71L1257.43 1280.34C1257.83 1279.95 1257.83 1279.32 1257.43 1278.93C1257.04 1278.54 1256.41 1278.54 1256.02 1278.93L1250.36 1284.59L1244.71 1278.93C1244.32 1278.54 1243.68 1278.54 1243.29 1278.93C1242.9 1279.32 1242.9 1279.95 1243.29 1280.34L1249.66 1286.71ZM1250.36 148L1249.36 148L1249.36 1286L1250.36 1286L1251.36 1286L1251.36 148L1250.36 148Z" fill="black"/>
<path d="M316.657 839.707C317.047 840.098 317.681 840.098 318.071 839.707L324.435 833.343C324.826 832.953 324.826 832.319 324.435 831.929C324.044 831.538 323.411 831.538 323.021 831.929L317.364 837.586L311.707 831.929C311.317 831.538 310.683 831.538 310.293 831.929C309.902 832.319 309.902 832.953 310.293 833.343L316.657 839.707ZM317.364 148L316.364 148L316.364 839L317.364 839L318.364 839L318.364 148L317.364 148Z" fill="black"/>
<path d="M116.071 579.293C115.681 578.902 115.047 578.902 114.657 579.293L108.293 585.657C107.902 586.047 107.902 586.681 108.293 587.071C108.683 587.462 109.317 587.462 109.707 587.071L115.364 581.414L121.021 587.071C121.411 587.462 122.044 587.462 122.435 587.071C122.826 586.681 122.826 586.047 122.435 585.657L116.071 579.293ZM115.364 1286L116.364 1286L116.364 580L115.364 580L114.364 580L114.364 1286L115.364 1286Z" fill="black"/>
<line x1="445.364" y1="1" x2="563.364" y2="1" stroke="black" stroke-width="2"/>
<path d="M230.364 482H317.864" stroke="black" stroke-width="2"/>
<line x1="753.364" y1="1" x2="871.364" y2="1" stroke="black" stroke-width="2"/>
<line x1="732.364" y1="1358" x2="846.364" y2="1358" stroke="black" stroke-width="2"/>
</svg>
